{"asset":{"version":"2.0","generator":"THREE.JS GLTFExporter"},"scenes":[{"nodes":[0],"name":"AuxScene"}],"scene":0,"nodes":[{"mesh":0}],"meshes":[{"primitives":[{"mode":4,"attributes":{"POSITION":0,"NORMAL":1},"material":0}]}],"materials":[{"pbrMetallicRoughness":{"baseColorFactor":[0.5019607843137255,0.5019607843137255,0.5019607843137255,1],"metallicFactor":0,"roughnessFactor":1}}],"accessors":[{"bufferView":0,"componentType":5126,"count":2499,"max":[100.61190795898438,48.28197479248047,100.61190795898438],"min":[-100.68809509277344,-3.5180280208587646,-100.68809509277344],"type":"VEC3"},{"bufferView":1,"componentType":5126,"count":2499,"max":[0.2154286950826645,1,0.14971323311328888],"min":[-0.22153311967849731,0.9681233167648315,-0.11873972415924072],"type":"VEC3"}],"bufferViews":[{"buffer":0,"byteOffset":0,"byteLength":29988,"byteStride":12,"target":34962},{"buffer":0,"byteOffset":29988,"byteLength":29988,"byteStride":12,"target":34962}],"buffers":[{"byteLength":59976,"uri":"data:application/octet-stream;base64,"}]}